# 3ds Max Wavefront OBJ Exporter v0.99 - (c)2007 guruware
# File Created: 24.10.2023 18:28:32

mtllib Ceiling.mtl

#
# object CEILING_StorageRoom
#

v  -557.4276 138.5040 81.8878
v  -557.4276 138.5040 596.0138
v  -553.5040 138.5040 596.0138
v  -553.5040 138.5040 81.8878
v  -1340.5045 138.5040 596.0138
v  -1340.5045 138.5040 81.8878
# 6 vertices

vn 0.0000 -1.0000 -0.0000
# 1 vertex normals

vt 0.0994 0.6977 0.0000
vt 0.0994 0.9474 0.0000
vt 0.0975 0.9474 0.0000
vt 0.0975 0.6977 0.0000
vt 0.4797 0.9474 0.0000
vt 0.4797 0.6977 0.0000
# 6 texture coords

o CEILING_StorageRoom
g CEILING_StorageRoom
usemtl wire_086086086
s off
f 4/4/1 3/3/1 2/2/1 1/1/1 
s 1
f 6/6/1 1/1/1 2/2/1 5/5/1 
# 2 polygons

#
# object CEILING_BehindWall
#

v  -1420.1903 138.5040 81.8878
v  -1420.1903 138.5040 596.0138
v  -1340.9054 138.5040 596.0138
v  -1340.9054 138.5040 81.8878
# 4 vertices

vn 0.0000 -1.0000 -0.0000
# 1 vertex normals

vt 0.8188 0.3725 0.0000
vt 0.8188 0.1228 0.0000
vt 0.8573 0.1228 0.0000
vt 0.8573 0.3725 0.0000
# 4 texture coords

o CEILING_BehindWall
g CEILING_BehindWall
usemtl wire_086086086
s 1
f 10/10/2 9/9/2 8/8/2 7/7/2 
# 1 polygons

#
# object CEILING_Hallway
#

v  42.1554 138.5040 81.8878
v  -56.2947 138.5040 81.8878
v  -56.2947 138.5040 234.5385
v  42.1554 138.5040 226.6376
v  -548.5455 138.5040 274.0431
v  -548.5455 138.5040 81.8878
v  -553.5040 138.5040 81.8878
v  -553.5040 138.5040 274.0431
v  -450.0953 138.5040 81.8878
v  -450.0953 138.5040 266.1422
v  -351.6453 138.5040 81.8878
v  -351.6451 138.5040 258.2412
v  -253.1951 138.5040 81.8878
v  -253.1951 138.5040 250.3403
v  -154.7449 138.5040 81.8878
v  -154.7449 138.5040 242.4394
v  337.5059 138.5040 202.9348
v  435.9561 138.5040 195.0339
v  435.9561 138.5040 81.8878
v  337.5059 138.5040 81.8878
v  239.0558 138.5040 210.8358
v  239.0557 138.5040 81.8878
v  140.6056 138.5040 218.7367
v  140.6056 138.5040 81.8878
v  239.0557 138.5040 47.1151
v  140.6056 138.5040 47.1151
v  42.1554 138.5040 47.1151
v  -56.2947 138.5040 47.1151
v  -154.7449 138.5040 47.1151
v  -253.1951 138.5040 47.1151
v  -351.6453 138.5040 47.1151
v  -450.0953 138.5040 47.1151
v  -351.6451 138.5040 283.4579
v  -253.1951 138.5040 283.4579
v  -154.7449 138.5040 283.4579
v  -56.2947 138.5040 283.4579
v  42.1554 138.5040 283.4579
v  140.6056 138.5040 283.4579
v  239.0558 138.5040 283.4579
v  337.5059 138.5040 283.4579
# 40 vertices

vn 0.0000 -1.0000 -0.0000
# 1 vertex normals

vt 0.6386 0.7169 0.0000
vt 0.6386 0.6691 0.0000
vt 0.7127 0.6691 0.0000
vt 0.7089 0.7169 0.0000
vt 0.7319 0.4301 0.0000
vt 0.6386 0.4301 0.0000
vt 0.6386 0.4276 0.0000
vt 0.7319 0.4276 0.0000
vt 0.6386 0.4779 0.0000
vt 0.7281 0.4779 0.0000
vt 0.6386 0.5257 0.0000
vt 0.7242 0.5257 0.0000
vt 0.6386 0.5735 0.0000
vt 0.7204 0.5735 0.0000
vt 0.6386 0.6213 0.0000
vt 0.7166 0.6213 0.0000
vt 0.6974 0.8603 0.0000
vt 0.6936 0.9081 0.0000
vt 0.6386 0.9081 0.0000
vt 0.6386 0.8603 0.0000
vt 0.7012 0.8125 0.0000
vt 0.6386 0.8125 0.0000
vt 0.7051 0.7647 0.0000
vt 0.6386 0.7647 0.0000
vt 0.6217 0.8125 0.0000
vt 0.6217 0.7647 0.0000
vt 0.6217 0.7169 0.0000
vt 0.6217 0.6691 0.0000
vt 0.6217 0.6213 0.0000
vt 0.6217 0.5735 0.0000
vt 0.6217 0.5257 0.0000
vt 0.6217 0.4779 0.0000
vt 0.7365 0.5257 0.0000
vt 0.7365 0.5735 0.0000
vt 0.7365 0.6213 0.0000
vt 0.7365 0.6691 0.0000
vt 0.7365 0.7169 0.0000
vt 0.7365 0.7647 0.0000
vt 0.7365 0.8125 0.0000
vt 0.7365 0.8603 0.0000
# 40 texture coords

o CEILING_Hallway
g CEILING_Hallway
usemtl wire_086086086
s 1
f 14/14/3 13/13/3 12/12/3 11/11/3 
s off
f 18/18/3 17/17/3 16/16/3 15/15/3 
s 1
f 20/20/3 15/15/3 16/16/3 19/19/3 
f 22/22/3 20/20/3 19/19/3 21/21/3 
f 24/24/3 22/22/3 21/21/3 23/23/3 
f 26/26/3 24/24/3 23/23/3 25/25/3 
f 13/13/3 26/26/3 25/25/3 12/12/3 
f 30/30/3 29/29/3 28/28/3 27/27/3 
f 32/32/3 30/30/3 27/27/3 31/31/3 
f 34/34/3 32/32/3 31/31/3 33/33/3 
f 11/11/3 34/34/3 33/33/3 14/14/3 
s off
f 36/36/3 35/35/3 32/32/3 34/34/3 
f 38/38/3 37/37/3 11/11/3 12/12/3 
f 40/40/3 39/39/3 25/25/3 23/23/3 
f 42/42/3 41/41/3 21/21/3 19/19/3 
f 44/44/3 43/43/3 22/22/3 24/24/3 
f 46/46/3 45/45/3 26/26/3 13/13/3 
f 48/48/3 47/47/3 14/14/3 33/33/3 
f 50/50/3 49/49/3 31/31/3 27/27/3 
# 19 polygons

#
# object CEILING_Cellar
#

v  435.9561 138.5040 -596.0139
v  435.9561 138.5040 312.6996
v  1420.1903 138.5040 312.6996
v  1420.1903 138.5040 -596.0139
# 4 vertices

vn 0.0000 -1.0000 -0.0000
# 1 vertex normals

vt 0.0694 0.4713 0.0000
vt 0.0694 0.0300 0.0000
vt 0.5473 0.0300 0.0000
vt 0.5473 0.4713 0.0000
# 4 texture coords

o CEILING_Cellar
g CEILING_Cellar
usemtl wire_086086086
s 1
f 54/54/4 53/53/4 52/52/4 51/51/4 
# 1 polygons

